# xmcd
#
# Track frame offsets:
#	150
#	20177
#	39025
#	60520
#	81477
#	96617
#	111110
#	124600
#	141925
#	157600
#	177892
#	191475
#	208120
#	229820
#	244302
#
# Disc length: 3488 seconds
#
# Revision: 0
# Processed by: cddbd v1.5.1PL0 Copyright (c) Steve Scherf et al.
# Submitted via: audiograbber 1.82.02
#
DISCID=cc0d9e0f
DTITLE=Various Artist - Sound Chioce 8103 Country Hits Vol 3
DYEAR=1900
DGENRE=Karaoke
TTITLE0=Traviss Tritt - Lord have mercy on a workin' man
TTITLE1=John Michael Montgomery - I love the way you love me
TTITLE2=Kenny Rogers - Through the years
TTITLE3=Brooks and Dunn - Neon Moon
TTITLE4=Reba McEntire - Take it back
TTITLE5=Collin Raye - That's my story
TTITLE6=Tracy Lawerence - My second home
TTITLE7=Shenandoah - I want to be loved like that
TTITLE8=Mary-Chapin Carpenter - Down at the twist and shout
TTITLE9=Ronnie Milsap - Lost in the fifties tonight
TTITLE10=Patsy Cline - I fall to pieces
TTITLE11=George Strait - I cross my heart
TTITLE12=Lorrie Morgan - Something in red
TTITLE13=Dolly Parton - I will always love you
TTITLE14=Charlie Daniels - The devil went down to Georgia
EXTD=
EXTT0=
EXTT1=
EXTT2=
EXTT3=
EXTT4=
EXTT5=
EXTT6=
EXTT7=
EXTT8=
EXTT9=
EXTT10=
EXTT11=
EXTT12=
EXTT13=
EXTT14=
PLAYORDER=
